<?xml version="1.0" encoding="utf-8"?>
<!-- Generator: Adobe Illustrator 16.0.0, SVG Export Plug-In . SVG Version: 6.00 Build 0)  -->
<!DOCTYPE svg PUBLIC "-//W3C//DTD SVG 1.1//EN" "http://www.w3.org/Graphics/SVG/1.1/DTD/svg11.dtd">
<svg version="1.1" id="Capa_1" xmlns="http://www.w3.org/2000/svg" xmlns:xlink="http://www.w3.org/1999/xlink" x="0px" y="0px"
	 width="1200px" height="437.64px" viewBox="0 0 1200 437.64" enable-background="new 0 0 1200 437.64" xml:space="preserve">
<path fill="#144986" d="M130.104,180.301h11.975l25.8,64.023l25.843-64.023h11.848l-37.676,91.195L130.104,180.301z"/>
<path fill="#144986" d="M329.372,180.301h10.781V267h-10.781V180.301z"/>
<path fill="#144986" d="M472.922,180.301h15.498c10.107,0,17.351,1.572,21.731,4.717c6.738,4.83,10.107,11.344,10.107,19.542
	c0,6.402-1.892,11.887-5.673,16.454c-3.781,4.567-8.817,7.319-15.107,8.255L526.817,267h-12.96l-25.663-36.61l-4.491-0.001V267
	h-10.781V180.301z M483.703,189.959v31.502c6.027,0,10.93-0.431,14.712-1.292c7.824-1.797,11.736-6.775,11.736-14.937
	c0-10.182-7.618-15.273-22.854-15.273H483.703z"/>
<path fill="#144986" d="M684.023,176.482L725.52,267h-11.675l-9.962-21.73h-39.617L654.378,267h-11.796L684.023,176.482z
	 M683.999,200.277l-15.271,35.109h30.747L683.999,200.277z"/>
<path fill="#144986" d="M866.971,180.301h10.837v56.096c0,9.996-1.517,17.576-4.548,22.742c-3.856,6.477-10.352,9.715-19.485,9.715
	c-4.455,0-8.835-1.312-13.14-3.932l5.447-8.984c3.219,1.985,6.157,2.977,8.815,2.977c3.106,0,5.708-1.235,7.806-3.706
	c1.797-2.134,2.976-4.848,3.537-8.142c0.486-2.92,0.73-6.477,0.73-10.67V180.301z"/>
<path fill="#144986" d="M1009.229,180.301h46.551v9.883h-35.77v24.258h34.871v9.883h-34.871v32.793h35.77V267h-46.551V180.301z"/>
</svg>
